<?xml version="1.0" standalone="no"?>
<!DOCTYPE svg PUBLIC "-//W3C//DTD SVG 20010904//EN"
 "http://www.w3.org/TR/2001/REC-SVG-20010904/DTD/svg10.dtd">
<svg version="1.0" xmlns="http://www.w3.org/2000/svg"
 width="256.000000pt" height="256.000000pt" viewBox="0 0 256.000000 256.000000"
 preserveAspectRatio="xMidYMid meet">
<metadata>
Created by potrace 1.14, written by Peter Selinger 2001-2017
</metadata>
<g transform="translate(0.000000,256.000000) scale(0.100000,-0.100000)"
fill="#000000" stroke="none">
<path d="M555 2546 c-241 -77 -542 -405 -551 -603 -3 -68 8 -93 70 -152 l46
-43 9 24 c14 37 68 124 121 195 140 188 332 357 513 451 l48 25 -43 45 c-68
70 -125 86 -213 58z"/>
<path d="M975 2475 c-5 -2 -37 -11 -70 -21 -382 -115 -850 -660 -821 -957 7
-70 16 -83 144 -210 l99 -99 -3 49 c-9 112 71 308 192 470 76 101 238 264 337
337 163 121 338 194 455 191 l64 -2 -104 104 c-57 58 -116 112 -133 120 -26
15 -133 26 -160 18z"/>
<path d="M1202 2199 c-136 -34 -337 -157 -480 -293 -84 -79 -262 -298 -262
-320 0 -3 -13 -27 -28 -53 -15 -26 -34 -64 -41 -83 -7 -19 -17 -44 -21 -55
-16 -37 -27 -111 -24 -159 12 -170 186 -201 434 -76 66 33 180 107 180 116 0
2 -43 47 -94 98 -52 52 -93 95 -91 97 2 2 4 22 6 44 5 61 26 105 76 157 49 49
132 93 198 103 40 6 41 5 130 -84 49 -50 93 -91 97 -91 23 0 134 196 169 299
80 232 -24 357 -249 300z"/>
<path d="M1025 1746 c-104 -33 -183 -99 -210 -175 -30 -87 -37 -76 232 -346
l247 -246 35 43 c41 51 186 194 219 215 12 9 22 20 22 27 0 14 -482 496 -495
495 -6 0 -28 -6 -50 -13z"/>
<path d="M1995 1453 c-97 -17 -260 -99 -390 -198 -69 -52 -202 -178 -259 -246
-132 -156 -229 -348 -242 -482 -9 -92 9 -125 134 -250 l108 -107 0 57 c0 77 9
121 39 194 110 271 388 569 667 713 105 54 185 78 270 80 l68 1 -103 104
c-132 133 -175 153 -292 134z"/>
<path d="M2298 1195 c-2 -2 -23 -6 -48 -10 -114 -17 -310 -128 -465 -263 -295
-258 -482 -624 -399 -783 27 -53 70 -73 154 -74 43 0 100 8 133 18 l59 18 -55
58 c-64 67 -75 103 -59 186 49 241 379 564 616 601 67 10 102 -3 165 -62 l60
-55 16 53 c9 29 18 82 21 118 9 113 -45 184 -148 193 -26 3 -48 3 -50 2z"/>
<path d="M2206 919 c-103 -24 -222 -103 -346 -228 -141 -142 -237 -312 -226
-403 2 -18 4 -39 5 -46 1 -16 130 -152 143 -152 4 0 8 16 8 35 0 51 34 144 83
227 53 91 217 258 315 323 83 54 198 98 255 97 l38 -1 -62 64 c-89 92 -123
105 -213 84z"/>
<path d="M2360 736 c-175 -65 -362 -222 -466 -394 -149 -245 -93 -392 123
-322 37 12 79 30 94 41 15 10 30 19 33 19 7 0 50 30 95 65 53 41 175 172 213
228 116 170 139 320 57 362 -34 18 -102 18 -149 1z"/>
</g>
</svg>
